<svg xmlns="http://www.w3.org/2000/svg" xmlns:xlink="http://www.w3.org/1999/xlink" width="500" zoomAndPan="magnify" viewBox="0 0 375 89.999999" height="120" preserveAspectRatio="xMidYMid meet" version="1.0"><defs><g/><clipPath id="734cd908e8"><rect x="0" width="205" y="0" height="90"/></clipPath></defs><g transform="matrix(1, 0, 0, 1, 85, -0.00000000000000949)"><g clip-path="url(#734cd908e8)"><g fill="#ffffff" fill-opacity="1"><g transform="translate(0.912218, 73.846768)"><g><path d="M 15.859375 0 L 6.90625 0 L 6.90625 -54.09375 L 15.859375 -54.09375 Z M 15.859375 0 "/></g></g></g><g fill="#ffffff" fill-opacity="1"><g transform="translate(23.517874, 73.846768)"><g><path d="M 36.921875 -54.09375 L 45.875 -54.09375 L 45.875 0 L 36.921875 0 L 18.71875 -32 L 18.71875 -48.875 L 36.921875 -16.8125 Z M 6.75 0 L 6.75 -54.09375 L 15.703125 -54.09375 L 15.703125 0 Z M 6.75 0 "/></g></g></g><g fill="#ffffff" fill-opacity="1"><g transform="translate(76.068683, 73.846768)"><g><path d="M 6.828125 0 L 6.828125 -54.09375 L 15.78125 -54.09375 L 15.78125 0 Z M 24.65625 -26.28125 L 43.453125 0 L 33.25 0 L 18.796875 -21.28125 L 18.796875 -32 L 31.921875 -54.09375 L 41.984375 -54.09375 Z M 24.65625 -26.28125 "/></g></g></g><g fill="#ffffff" fill-opacity="1"><g transform="translate(125.096534, 73.846768)"><g><path d="M 15.859375 0 L 6.90625 0 L 6.90625 -54.09375 L 15.859375 -54.09375 Z M 15.859375 0 "/></g></g></g><g fill="#ffffff" fill-opacity="1"><g transform="translate(147.702189, 73.846768)"><g><path d="M 5.65625 -27.296875 C 5.65625 -31.648438 6.179688 -35.503906 7.234375 -38.859375 C 8.285156 -42.210938 9.75 -45.050781 11.625 -47.375 C 13.507812 -49.695312 15.738281 -51.484375 18.3125 -52.734375 C 20.882812 -53.984375 23.6875 -54.707031 26.71875 -54.90625 L 26.71875 -47.5625 C 25.050781 -47.363281 23.484375 -46.847656 22.015625 -46.015625 C 20.546875 -45.179688 19.273438 -43.957031 18.203125 -42.34375 C 17.128906 -40.726562 16.269531 -38.671875 15.625 -36.171875 C 14.988281 -33.679688 14.648438 -30.722656 14.609375 -27.296875 C 14.648438 -23.828125 14.988281 -20.851562 15.625 -18.375 C 16.269531 -15.90625 17.140625 -13.835938 18.234375 -12.171875 C 19.335938 -10.515625 20.625 -9.257812 22.09375 -8.40625 C 23.5625 -7.550781 25.101562 -7.050781 26.71875 -6.90625 L 26.71875 0.359375 C 23.726562 0.171875 20.9375 -0.546875 18.34375 -1.796875 C 15.75 -3.046875 13.507812 -4.832031 11.625 -7.15625 C 9.75 -9.476562 8.285156 -12.328125 7.234375 -15.703125 C 6.179688 -19.078125 5.65625 -22.941406 5.65625 -27.296875 Z M 29.65625 -54.90625 C 32.632812 -54.75 35.40625 -54.035156 37.96875 -52.765625 C 40.539062 -51.492188 42.769531 -49.695312 44.65625 -47.375 C 46.539062 -45.050781 48.019531 -42.210938 49.09375 -38.859375 C 50.175781 -35.503906 50.71875 -31.648438 50.71875 -27.296875 C 50.71875 -22.941406 50.175781 -19.078125 49.09375 -15.703125 C 48.019531 -12.328125 46.539062 -9.476562 44.65625 -7.15625 C 42.769531 -4.832031 40.554688 -3.046875 38.015625 -1.796875 C 35.472656 -0.546875 32.6875 0.171875 29.65625 0.359375 L 29.65625 -6.90625 C 31.3125 -7.09375 32.875 -7.613281 34.34375 -8.46875 C 35.8125 -9.332031 37.082031 -10.582031 38.15625 -12.21875 C 39.238281 -13.851562 40.097656 -15.90625 40.734375 -18.375 C 41.367188 -20.851562 41.710938 -23.828125 41.765625 -27.296875 C 41.710938 -30.773438 41.367188 -33.75 40.734375 -36.21875 C 40.097656 -38.6875 39.226562 -40.738281 38.125 -42.375 C 37.03125 -44.019531 35.75 -45.269531 34.28125 -46.125 C 32.8125 -46.976562 31.269531 -47.484375 29.65625 -47.640625 Z M 29.65625 -54.90625 "/></g></g></g></g></g></svg>