<svg xmlns="http://www.w3.org/2000/svg" xmlns:xlink="http://www.w3.org/1999/xlink" width="300" zoomAndPan="magnify" viewBox="0 0 224.87999 89.999999" height="120" preserveAspectRatio="xMidYMid meet" version="1.0"><defs><g/></defs><g fill="#ffffff" fill-opacity="1"><g transform="translate(9.487124, 74.863087)"><g><path d="M 16.0625 0 L 7 0 L 7 -54.828125 L 16.0625 -54.828125 Z M 16.0625 0 "/></g></g></g><g fill="#ffffff" fill-opacity="1"><g transform="translate(32.396544, 74.863087)"><g><path d="M 37.421875 -54.828125 L 46.484375 -54.828125 L 46.484375 0 L 37.421875 0 L 18.96875 -32.4375 L 18.96875 -49.546875 L 37.421875 -17.03125 Z M 6.84375 0 L 6.84375 -54.828125 L 15.921875 -54.828125 L 15.921875 0 Z M 6.84375 0 "/></g></g></g><g fill="#ffffff" fill-opacity="1"><g transform="translate(85.653505, 74.863087)"><g><path d="M 6.921875 0 L 6.921875 -54.828125 L 16 -54.828125 L 16 0 Z M 25 -26.625 L 44.03125 0 L 33.703125 0 L 19.046875 -21.578125 L 19.046875 -32.4375 L 32.359375 -54.828125 L 42.546875 -54.828125 Z M 25 -26.625 "/></g></g></g><g fill="#ffffff" fill-opacity="1"><g transform="translate(135.340168, 74.863087)"><g><path d="M 16.0625 0 L 7 0 L 7 -54.828125 L 16.0625 -54.828125 Z M 16.0625 0 "/></g></g></g><g fill="#ffffff" fill-opacity="1"><g transform="translate(158.249587, 74.863087)"><g><path d="M 5.734375 -27.671875 C 5.734375 -32.085938 6.265625 -35.992188 7.328125 -39.390625 C 8.390625 -42.785156 9.875 -45.660156 11.78125 -48.015625 C 13.695312 -50.367188 15.957031 -52.175781 18.5625 -53.4375 C 21.164062 -54.707031 24.003906 -55.441406 27.078125 -55.640625 L 27.078125 -48.203125 C 25.390625 -48.003906 23.800781 -47.484375 22.3125 -46.640625 C 20.820312 -45.796875 19.53125 -44.554688 18.4375 -42.921875 C 17.351562 -41.285156 16.488281 -39.203125 15.84375 -36.671875 C 15.195312 -34.140625 14.847656 -31.140625 14.796875 -27.671875 C 14.847656 -24.148438 15.195312 -21.132812 15.84375 -18.625 C 16.488281 -16.125 17.367188 -14.03125 18.484375 -12.34375 C 19.597656 -10.65625 20.898438 -9.378906 22.390625 -8.515625 C 23.878906 -7.648438 25.441406 -7.144531 27.078125 -7 L 27.078125 0.375 C 24.054688 0.175781 21.226562 -0.550781 18.59375 -1.8125 C 15.96875 -3.082031 13.695312 -4.894531 11.78125 -7.25 C 9.875 -9.601562 8.390625 -12.488281 7.328125 -15.90625 C 6.265625 -19.332031 5.734375 -23.253906 5.734375 -27.671875 Z M 30.046875 -55.640625 C 33.078125 -55.492188 35.894531 -54.773438 38.5 -53.484375 C 41.101562 -52.191406 43.359375 -50.367188 45.265625 -48.015625 C 47.171875 -45.660156 48.671875 -42.785156 49.765625 -39.390625 C 50.859375 -35.992188 51.40625 -32.085938 51.40625 -27.671875 C 51.40625 -23.253906 50.859375 -19.332031 49.765625 -15.90625 C 48.671875 -12.488281 47.171875 -9.601562 45.265625 -7.25 C 43.359375 -4.894531 41.113281 -3.082031 38.53125 -1.8125 C 35.957031 -0.550781 33.128906 0.175781 30.046875 0.375 L 30.046875 -7 C 31.734375 -7.195312 33.320312 -7.726562 34.8125 -8.59375 C 36.300781 -9.457031 37.585938 -10.71875 38.671875 -12.375 C 39.765625 -14.039062 40.632812 -16.125 41.28125 -18.625 C 41.925781 -21.132812 42.273438 -24.148438 42.328125 -27.671875 C 42.273438 -31.191406 41.925781 -34.203125 41.28125 -36.703125 C 40.632812 -39.210938 39.753906 -41.296875 38.640625 -42.953125 C 37.523438 -44.617188 36.222656 -45.882812 34.734375 -46.75 C 33.242188 -47.613281 31.679688 -48.125 30.046875 -48.28125 Z M 30.046875 -55.640625 "/></g></g></g></svg>